<svg width="1343" height="264" viewBox="0 0 1343 264" fill="none" xmlns="http://www.w3.org/2000/svg">
<g clip-path="url(#clip0)">
<path d="M130.681 217.8H1332.95" stroke="#AEAEAE"/>
<path d="M130.681 225.72V217.8" stroke="#AEAEAE"/>
<path d="M132.324 224.769H133.455V230.81C133.455 231.626 133.209 232.265 132.717 232.726C132.228 233.187 131.576 233.417 130.76 233.417C129.912 233.417 129.252 233.2 128.779 232.767C128.307 232.333 128.07 231.726 128.07 230.945H129.195C129.195 231.433 129.328 231.814 129.594 232.087C129.863 232.361 130.252 232.497 130.76 232.497C131.225 232.497 131.6 232.351 131.885 232.058C132.174 231.765 132.32 231.355 132.324 230.827V224.769ZM139.115 233.3C139.053 233.175 139.002 232.952 138.963 232.632C138.459 233.156 137.857 233.417 137.158 233.417C136.533 233.417 136.019 233.241 135.617 232.89C135.219 232.534 135.019 232.085 135.019 231.542C135.019 230.882 135.269 230.37 135.769 230.007C136.273 229.64 136.98 229.456 137.891 229.456H138.945V228.958C138.945 228.579 138.832 228.279 138.605 228.056C138.379 227.829 138.045 227.716 137.603 227.716C137.217 227.716 136.893 227.814 136.631 228.009C136.369 228.204 136.238 228.441 136.238 228.718H135.148C135.148 228.402 135.26 228.097 135.482 227.804C135.709 227.507 136.014 227.273 136.396 227.101C136.783 226.929 137.207 226.843 137.668 226.843C138.398 226.843 138.971 227.027 139.385 227.394C139.799 227.757 140.014 228.259 140.029 228.9V231.818C140.029 232.4 140.103 232.863 140.252 233.206V233.3H139.115ZM137.316 232.474C137.656 232.474 137.978 232.386 138.283 232.21C138.588 232.034 138.809 231.806 138.945 231.525V230.224H138.096C136.768 230.224 136.103 230.613 136.103 231.39C136.103 231.73 136.217 231.995 136.443 232.187C136.67 232.378 136.961 232.474 137.316 232.474ZM142.754 226.96L142.789 227.757C143.273 227.148 143.906 226.843 144.687 226.843C146.027 226.843 146.703 227.599 146.715 229.111V233.3H145.631V229.105C145.627 228.648 145.521 228.31 145.314 228.091C145.111 227.872 144.793 227.763 144.359 227.763C144.008 227.763 143.699 227.857 143.434 228.044C143.168 228.232 142.961 228.478 142.812 228.783V233.3H141.728V226.96H142.754Z" fill="#AEAEAE"/>
<path d="M264.266 225.72V217.8" stroke="#AEAEAE"/>
<path d="M264.393 232.648H260.812V236.415H259.688V227.884H264.973V228.81H260.812V231.728H264.393V232.648ZM268.652 236.533C267.793 236.533 267.094 236.251 266.555 235.689C266.016 235.122 265.746 234.367 265.746 233.421V233.222C265.746 232.593 265.865 232.033 266.104 231.54C266.346 231.044 266.682 230.658 267.111 230.38C267.545 230.099 268.014 229.958 268.518 229.958C269.342 229.958 269.982 230.23 270.439 230.773C270.896 231.316 271.125 232.093 271.125 233.105V233.556H266.83C266.846 234.181 267.027 234.687 267.375 235.074C267.727 235.456 268.172 235.648 268.711 235.648C269.094 235.648 269.418 235.57 269.684 235.413C269.949 235.257 270.182 235.05 270.381 234.792L271.043 235.308C270.512 236.124 269.715 236.533 268.652 236.533ZM268.518 230.849C268.08 230.849 267.713 231.009 267.416 231.329C267.119 231.646 266.936 232.091 266.865 232.665H270.041V232.583C270.01 232.033 269.861 231.607 269.596 231.306C269.33 231.001 268.971 230.849 268.518 230.849ZM277.752 233.316C277.752 234.285 277.529 235.064 277.084 235.654C276.639 236.24 276.041 236.533 275.291 236.533C274.49 236.533 273.871 236.249 273.434 235.683L273.381 236.415H272.385V227.415H273.469V230.773C273.906 230.23 274.51 229.958 275.279 229.958C276.049 229.958 276.652 230.249 277.09 230.831C277.531 231.413 277.752 232.21 277.752 233.222V233.316ZM276.668 233.193C276.668 232.454 276.525 231.884 276.24 231.482C275.955 231.079 275.545 230.878 275.01 230.878C274.295 230.878 273.781 231.21 273.469 231.874V234.617C273.801 235.281 274.318 235.613 275.021 235.613C275.541 235.613 275.945 235.411 276.234 235.009C276.523 234.607 276.668 234.001 276.668 233.193Z" fill="#AEAEAE"/>
<path d="M397.851 225.72V217.8" stroke="#AEAEAE"/>
<path d="M393.908 227.884L396.697 234.845L399.486 227.884H400.945V236.415H399.82V233.093L399.926 229.507L397.125 236.415H396.264L393.469 229.525L393.58 233.093V236.415H392.455V227.884H393.908ZM406.676 236.415C406.613 236.29 406.562 236.068 406.523 235.747C406.02 236.271 405.418 236.533 404.719 236.533C404.094 236.533 403.58 236.357 403.178 236.005C402.779 235.65 402.58 235.201 402.58 234.658C402.58 233.997 402.83 233.486 403.33 233.122C403.834 232.755 404.541 232.572 405.451 232.572H406.506V232.074C406.506 231.695 406.393 231.394 406.166 231.171C405.939 230.945 405.605 230.831 405.164 230.831C404.777 230.831 404.453 230.929 404.191 231.124C403.93 231.32 403.799 231.556 403.799 231.833H402.709C402.709 231.517 402.82 231.212 403.043 230.919C403.27 230.622 403.574 230.388 403.957 230.216C404.344 230.044 404.768 229.958 405.229 229.958C405.959 229.958 406.531 230.142 406.945 230.509C407.359 230.872 407.574 231.374 407.59 232.015V234.933C407.59 235.515 407.664 235.978 407.812 236.322V236.415H406.676ZM404.877 235.589C405.217 235.589 405.539 235.501 405.844 235.326C406.148 235.15 406.369 234.921 406.506 234.64V233.339H405.656C404.328 233.339 403.664 233.728 403.664 234.505C403.664 234.845 403.777 235.111 404.004 235.302C404.23 235.493 404.521 235.589 404.877 235.589ZM412.354 231.048C412.189 231.021 412.012 231.007 411.82 231.007C411.109 231.007 410.627 231.31 410.373 231.915V236.415H409.289V230.076H410.344L410.361 230.808C410.717 230.242 411.221 229.958 411.873 229.958C412.084 229.958 412.244 229.986 412.354 230.04V231.048Z" fill="#AEAEAE"/>
<path d="M531.437 225.72V217.8" stroke="#AEAEAE"/>
<path d="M531.385 234.189H527.811L527.008 236.415H525.848L529.105 227.884H530.09L533.354 236.415H532.199L531.385 234.189ZM528.15 233.263H531.051L529.598 229.273L528.15 233.263ZM539.687 233.316C539.687 234.281 539.467 235.058 539.025 235.648C538.584 236.238 537.986 236.533 537.232 236.533C536.463 236.533 535.857 236.288 535.416 235.8V238.853H534.332V230.076H535.322L535.375 230.779C535.816 230.232 536.43 229.958 537.215 229.958C537.977 229.958 538.578 230.245 539.02 230.82C539.465 231.394 539.687 232.193 539.687 233.216V233.316ZM538.604 233.193C538.604 232.478 538.451 231.913 538.146 231.499C537.842 231.085 537.424 230.878 536.893 230.878C536.236 230.878 535.744 231.169 535.416 231.751V234.781C535.74 235.359 536.236 235.648 536.904 235.648C537.424 235.648 537.836 235.443 538.141 235.033C538.449 234.618 538.604 234.005 538.604 233.193ZM544.135 231.048C543.971 231.021 543.793 231.007 543.602 231.007C542.891 231.007 542.408 231.31 542.154 231.915V236.415H541.07V230.076H542.125L542.143 230.808C542.498 230.242 543.002 229.958 543.654 229.958C543.865 229.958 544.025 229.986 544.135 230.04V231.048Z" fill="#AEAEAE"/>
<path d="M665.022 225.72V217.8" stroke="#AEAEAE"/>
<path d="M663.146 227.884L665.936 234.845L668.725 227.884H670.184V236.415H669.059V233.093L669.164 229.507L666.363 236.415H665.502L662.707 229.525L662.818 233.093V236.415H661.693V227.884H663.146ZM675.914 236.415C675.852 236.29 675.801 236.068 675.762 235.747C675.258 236.271 674.656 236.533 673.957 236.533C673.332 236.533 672.818 236.357 672.416 236.005C672.018 235.65 671.818 235.201 671.818 234.658C671.818 233.997 672.068 233.486 672.568 233.122C673.072 232.755 673.779 232.572 674.689 232.572H675.744V232.074C675.744 231.695 675.631 231.394 675.404 231.171C675.178 230.945 674.844 230.831 674.402 230.831C674.016 230.831 673.691 230.929 673.43 231.124C673.168 231.32 673.037 231.556 673.037 231.833H671.947C671.947 231.517 672.059 231.212 672.281 230.919C672.508 230.622 672.812 230.388 673.195 230.216C673.582 230.044 674.006 229.958 674.467 229.958C675.197 229.958 675.77 230.142 676.184 230.509C676.598 230.872 676.812 231.374 676.828 232.015V234.933C676.828 235.515 676.902 235.978 677.051 236.322V236.415H675.914ZM674.115 235.589C674.455 235.589 674.777 235.501 675.082 235.326C675.387 235.15 675.607 234.921 675.744 234.64V233.339H674.895C673.566 233.339 672.902 233.728 672.902 234.505C672.902 234.845 673.016 235.111 673.242 235.302C673.469 235.493 673.76 235.589 674.115 235.589ZM680.508 234.827L681.984 230.076H683.145L680.596 237.394C680.201 238.449 679.574 238.976 678.715 238.976L678.51 238.958L678.105 238.882V238.003L678.398 238.027C678.766 238.027 679.051 237.952 679.254 237.804C679.461 237.656 679.631 237.384 679.764 236.99L680.004 236.345L677.742 230.076H678.926L680.508 234.827Z" fill="#AEAEAE"/>
<path d="M798.607 225.72V217.8" stroke="#AEAEAE"/>
<path d="M797.633 227.884H798.764V233.925C798.764 234.742 798.518 235.38 798.025 235.841C797.537 236.302 796.885 236.533 796.068 236.533C795.221 236.533 794.561 236.316 794.088 235.882C793.615 235.449 793.379 234.841 793.379 234.06H794.504C794.504 234.548 794.637 234.929 794.902 235.202C795.172 235.476 795.561 235.613 796.068 235.613C796.533 235.613 796.908 235.466 797.193 235.173C797.482 234.88 797.629 234.47 797.633 233.943V227.884ZM804.424 235.788C804.002 236.285 803.383 236.533 802.566 236.533C801.891 236.533 801.375 236.337 801.02 235.947C800.668 235.552 800.49 234.97 800.486 234.201V230.076H801.57V234.171C801.57 235.132 801.961 235.613 802.742 235.613C803.57 235.613 804.121 235.304 804.395 234.687V230.076H805.479V236.415H804.447L804.424 235.788ZM808.156 230.076L808.191 230.872C808.676 230.263 809.309 229.958 810.09 229.958C811.43 229.958 812.105 230.714 812.117 232.226V236.415H811.033V232.22C811.029 231.763 810.924 231.425 810.717 231.206C810.514 230.988 810.195 230.878 809.762 230.878C809.41 230.878 809.102 230.972 808.836 231.16C808.57 231.347 808.363 231.593 808.215 231.898V236.415H807.131V230.076H808.156Z" fill="#AEAEAE"/>
<path d="M932.192 225.72V217.8" stroke="#AEAEAE"/>
<path d="M932.484 227.884H933.615V233.925C933.615 234.742 933.369 235.38 932.877 235.841C932.389 236.302 931.736 236.533 930.92 236.533C930.072 236.533 929.412 236.316 928.939 235.882C928.467 235.449 928.23 234.841 928.23 234.06H929.355C929.355 234.548 929.488 234.929 929.754 235.202C930.023 235.476 930.412 235.613 930.92 235.613C931.385 235.613 931.76 235.466 932.045 235.173C932.334 234.88 932.48 234.47 932.484 233.943V227.884ZM939.275 235.788C938.854 236.285 938.234 236.533 937.418 236.533C936.742 236.533 936.227 236.337 935.871 235.947C935.52 235.552 935.342 234.97 935.338 234.201V230.076H936.422V234.171C936.422 235.132 936.812 235.613 937.594 235.613C938.422 235.613 938.973 235.304 939.246 234.687V230.076H940.33V236.415H939.299L939.275 235.788ZM943.16 236.415H942.076V227.415H943.16V236.415Z" fill="#AEAEAE"/>
<path d="M1065.78 225.72V217.8" stroke="#AEAEAE"/>
<path d="M1065.14 234.189H1061.57L1060.77 236.415H1059.61L1062.86 227.884H1063.85L1067.11 236.415H1065.96L1065.14 234.189ZM1061.91 233.263H1064.81L1063.36 229.273L1061.91 233.263ZM1071.93 235.788C1071.51 236.285 1070.89 236.533 1070.08 236.533C1069.4 236.533 1068.88 236.337 1068.53 235.947C1068.18 235.552 1068 234.97 1068 234.201V230.076H1069.08V234.171C1069.08 235.132 1069.47 235.613 1070.25 235.613C1071.08 235.613 1071.63 235.304 1071.9 234.687V230.076H1072.99V236.415H1071.96L1071.93 235.788ZM1074.38 233.193C1074.38 232.204 1074.61 231.419 1075.07 230.837C1075.53 230.251 1076.13 229.958 1076.88 229.958C1077.66 229.958 1078.26 230.232 1078.7 230.779L1078.75 230.076H1079.74V236.263C1079.74 237.083 1079.49 237.73 1079.01 238.202C1078.52 238.675 1077.87 238.911 1077.05 238.911C1076.59 238.911 1076.14 238.814 1075.71 238.618C1075.27 238.423 1074.94 238.156 1074.71 237.816L1075.27 237.165C1075.73 237.74 1076.3 238.027 1076.97 238.027C1077.5 238.027 1077.91 237.878 1078.2 237.581C1078.5 237.285 1078.65 236.867 1078.65 236.327V235.783C1078.21 236.283 1077.62 236.533 1076.87 236.533C1076.13 236.533 1075.53 236.234 1075.07 235.636C1074.61 235.038 1074.38 234.224 1074.38 233.193ZM1075.47 233.316C1075.47 234.031 1075.62 234.593 1075.91 235.003C1076.21 235.41 1076.62 235.613 1077.14 235.613C1077.83 235.613 1078.33 235.302 1078.65 234.681V231.786C1078.32 231.181 1077.82 230.878 1077.15 230.878C1076.63 230.878 1076.21 231.083 1075.92 231.493C1075.62 231.904 1075.47 232.511 1075.47 233.316Z" fill="#AEAEAE"/>
<path d="M1199.36 225.72V217.8" stroke="#AEAEAE"/>
<path d="M1196.39 232.613C1195.43 232.335 1194.72 231.995 1194.28 231.593C1193.84 231.187 1193.62 230.687 1193.62 230.093C1193.62 229.421 1193.89 228.867 1194.43 228.429C1194.97 227.988 1195.67 227.767 1196.53 227.767C1197.11 227.767 1197.63 227.88 1198.09 228.107C1198.55 228.333 1198.91 228.646 1199.16 229.044C1199.41 229.443 1199.54 229.878 1199.54 230.351H1198.41C1198.41 229.835 1198.24 229.431 1197.91 229.138C1197.59 228.841 1197.12 228.693 1196.53 228.693C1195.97 228.693 1195.54 228.816 1195.22 229.062C1194.92 229.304 1194.76 229.642 1194.76 230.076C1194.76 230.423 1194.91 230.718 1195.2 230.96C1195.5 231.199 1196 231.417 1196.71 231.617C1197.42 231.816 1197.97 232.036 1198.37 232.279C1198.77 232.517 1199.07 232.796 1199.26 233.117C1199.46 233.437 1199.55 233.814 1199.55 234.247C1199.55 234.939 1199.29 235.493 1198.75 235.911C1198.21 236.326 1197.49 236.533 1196.58 236.533C1196 236.533 1195.45 236.421 1194.94 236.199C1194.44 235.972 1194.04 235.663 1193.77 235.273C1193.49 234.882 1193.36 234.439 1193.36 233.943H1194.49C1194.49 234.458 1194.68 234.867 1195.05 235.167C1195.44 235.464 1195.95 235.613 1196.58 235.613C1197.18 235.613 1197.63 235.492 1197.95 235.249C1198.27 235.007 1198.42 234.677 1198.42 234.259C1198.42 233.841 1198.28 233.519 1197.98 233.292C1197.69 233.062 1197.16 232.835 1196.39 232.613ZM1203.46 236.533C1202.6 236.533 1201.9 236.251 1201.37 235.689C1200.83 235.122 1200.56 234.367 1200.56 233.421V233.222C1200.56 232.593 1200.68 232.033 1200.91 231.54C1201.16 231.044 1201.49 230.658 1201.92 230.38C1202.36 230.099 1202.82 229.958 1203.33 229.958C1204.15 229.958 1204.79 230.23 1205.25 230.773C1205.71 231.316 1205.94 232.093 1205.94 233.105V233.556H1201.64C1201.66 234.181 1201.84 234.687 1202.19 235.074C1202.54 235.456 1202.98 235.648 1203.52 235.648C1203.9 235.648 1204.23 235.57 1204.49 235.413C1204.76 235.257 1204.99 235.05 1205.19 234.792L1205.85 235.308C1205.32 236.124 1204.53 236.533 1203.46 236.533ZM1203.33 230.849C1202.89 230.849 1202.52 231.009 1202.23 231.329C1201.93 231.646 1201.75 232.091 1201.68 232.665H1204.85V232.583C1204.82 232.033 1204.67 231.607 1204.41 231.306C1204.14 231.001 1203.78 230.849 1203.33 230.849ZM1212.55 233.316C1212.55 234.281 1212.33 235.058 1211.89 235.648C1211.45 236.238 1210.85 236.533 1210.1 236.533C1209.33 236.533 1208.72 236.288 1208.28 235.8V238.853H1207.2V230.076H1208.19L1208.24 230.779C1208.68 230.232 1209.29 229.958 1210.08 229.958C1210.84 229.958 1211.44 230.245 1211.88 230.82C1212.33 231.394 1212.55 232.193 1212.55 233.216V233.316ZM1211.47 233.193C1211.47 232.478 1211.31 231.913 1211.01 231.499C1210.71 231.085 1210.29 230.878 1209.76 230.878C1209.1 230.878 1208.61 231.169 1208.28 231.751V234.781C1208.6 235.359 1209.1 235.648 1209.77 235.648C1210.29 235.648 1210.7 235.443 1211 235.033C1211.31 234.618 1211.47 234.005 1211.47 233.193Z" fill="#AEAEAE"/>
<path d="M1332.95 225.72V217.8" stroke="#AEAEAE"/>
<path d="M1328.32 232.425C1328.32 233.261 1328.18 233.992 1327.9 234.617C1327.62 235.238 1327.22 235.712 1326.71 236.04C1326.19 236.368 1325.59 236.533 1324.9 236.533C1324.23 236.533 1323.63 236.368 1323.12 236.04C1322.6 235.708 1322.19 235.238 1321.9 234.628C1321.62 234.015 1321.47 233.306 1321.46 232.501V231.886C1321.46 231.066 1321.61 230.341 1321.89 229.712C1322.18 229.083 1322.58 228.603 1323.1 228.271C1323.62 227.935 1324.22 227.767 1324.89 227.767C1325.57 227.767 1326.18 227.933 1326.7 228.265C1327.22 228.593 1327.62 229.072 1327.9 229.701C1328.18 230.326 1328.32 231.054 1328.32 231.886V232.425ZM1327.21 231.874C1327.21 230.863 1327 230.087 1326.6 229.548C1326.19 229.005 1325.62 228.734 1324.89 228.734C1324.18 228.734 1323.62 229.005 1323.21 229.548C1322.8 230.087 1322.59 230.837 1322.58 231.798V232.425C1322.58 233.406 1322.79 234.177 1323.2 234.74C1323.61 235.298 1324.18 235.577 1324.9 235.577C1325.63 235.577 1326.19 235.314 1326.59 234.786C1326.99 234.255 1327.19 233.495 1327.21 232.507V231.874ZM1332.38 235.648C1332.77 235.648 1333.11 235.531 1333.4 235.296C1333.69 235.062 1333.85 234.769 1333.88 234.417H1334.9C1334.88 234.781 1334.76 235.126 1334.53 235.454C1334.3 235.783 1333.99 236.044 1333.6 236.24C1333.22 236.435 1332.81 236.533 1332.38 236.533C1331.52 236.533 1330.83 236.245 1330.32 235.671C1329.81 235.093 1329.56 234.304 1329.56 233.304V233.122C1329.56 232.505 1329.67 231.956 1329.9 231.476C1330.13 230.995 1330.45 230.622 1330.87 230.357C1331.3 230.091 1331.8 229.958 1332.38 229.958C1333.09 229.958 1333.68 230.171 1334.15 230.597C1334.62 231.023 1334.87 231.576 1334.9 232.255H1333.88C1333.85 231.845 1333.69 231.509 1333.41 231.247C1333.13 230.982 1332.79 230.849 1332.38 230.849C1331.83 230.849 1331.4 231.048 1331.1 231.447C1330.79 231.841 1330.64 232.413 1330.64 233.163V233.368C1330.64 234.099 1330.79 234.661 1331.1 235.056C1331.4 235.451 1331.83 235.648 1332.38 235.648ZM1337.59 228.54V230.076H1338.78V230.913H1337.59V234.845C1337.59 235.099 1337.65 235.29 1337.75 235.419C1337.86 235.544 1338.04 235.607 1338.29 235.607C1338.42 235.607 1338.59 235.583 1338.81 235.536V236.415C1338.52 236.493 1338.24 236.533 1337.97 236.533C1337.49 236.533 1337.12 236.386 1336.88 236.093C1336.63 235.8 1336.51 235.384 1336.51 234.845V230.913H1335.36V230.076H1336.51V228.54H1337.59Z" fill="#AEAEAE"/>
<path d="M130.681 6.60001V217.8" stroke="#AEAEAE"/>
<path d="M118.618 218.8H130.681" stroke="#AEAEAE"/>
<path d="M107.886 210.321C107.886 211.591 107.669 212.534 107.236 213.151C106.802 213.769 106.124 214.077 105.203 214.077C104.292 214.077 103.619 213.776 103.181 213.175C102.744 212.569 102.517 211.667 102.501 210.468V209.021C102.501 207.767 102.718 206.835 103.152 206.226C103.585 205.616 104.265 205.312 105.191 205.312C106.109 205.312 106.785 205.607 107.218 206.196C107.652 206.782 107.874 207.689 107.886 208.915V210.321ZM106.802 208.839C106.802 207.921 106.673 207.253 106.415 206.835C106.158 206.413 105.749 206.202 105.191 206.202C104.636 206.202 104.232 206.411 103.978 206.829C103.724 207.247 103.593 207.89 103.585 208.757V210.491C103.585 211.413 103.718 212.095 103.984 212.536C104.253 212.974 104.66 213.192 105.203 213.192C105.738 213.192 106.134 212.985 106.392 212.571C106.654 212.157 106.79 211.505 106.802 210.614V208.839Z" fill="#AEAEAE"/>
<path d="M118.618 166H130.681" stroke="#AEAEAE"/>
<path d="M103.035 156.883L103.468 152.629H107.839V153.631H104.388L104.13 155.957C104.548 155.711 105.023 155.588 105.554 155.588C106.332 155.588 106.949 155.846 107.406 156.361C107.863 156.873 108.091 157.566 108.091 158.441C108.091 159.32 107.853 160.014 107.376 160.521C106.904 161.025 106.242 161.277 105.39 161.277C104.636 161.277 104.021 161.068 103.544 160.65C103.068 160.232 102.796 159.654 102.73 158.916H103.755C103.822 159.404 103.996 159.773 104.277 160.023C104.558 160.269 104.929 160.392 105.39 160.392C105.894 160.392 106.289 160.221 106.574 159.877C106.863 159.533 107.007 159.058 107.007 158.453C107.007 157.883 106.851 157.426 106.539 157.082C106.23 156.734 105.818 156.56 105.302 156.56C104.83 156.56 104.458 156.664 104.189 156.871L103.902 157.105L103.035 156.883Z" fill="#AEAEAE"/>
<path d="M118.618 113.2H130.681" stroke="#AEAEAE"/>
<path d="M99.3608 108.36H98.2709V101.135L96.0854 101.938V100.954L99.1909 99.7878H99.3608V108.36ZM107.886 104.721C107.886 105.991 107.669 106.934 107.236 107.551C106.802 108.169 106.124 108.477 105.203 108.477C104.292 108.477 103.619 108.176 103.181 107.575C102.744 106.969 102.517 106.067 102.501 104.868V103.421C102.501 102.167 102.718 101.235 103.152 100.626C103.585 100.016 104.265 99.7116 105.191 99.7116C106.109 99.7116 106.785 100.007 107.218 100.596C107.652 101.182 107.874 102.089 107.886 103.315V104.721ZM106.802 103.239C106.802 102.321 106.673 101.653 106.415 101.235C106.158 100.813 105.749 100.602 105.191 100.602C104.636 100.602 104.232 100.811 103.978 101.229C103.724 101.647 103.593 102.29 103.585 103.157V104.891C103.585 105.813 103.718 106.495 103.984 106.936C104.253 107.374 104.66 107.592 105.203 107.592C105.738 107.592 106.134 107.385 106.392 106.971C106.654 106.557 106.79 105.905 106.802 105.014V103.239Z" fill="#AEAEAE"/>
<path d="M118.618 60.4H130.681" stroke="#AEAEAE"/>
<path d="M99.3608 55.56H98.2709V48.3354L96.0854 49.1381V48.1537L99.1909 46.9877H99.3608V55.56ZM103.035 51.2827L103.468 47.0287H107.839V48.0307H104.388L104.13 50.3569C104.548 50.1108 105.023 49.9877 105.554 49.9877C106.331 49.9877 106.949 50.2455 107.406 50.7612C107.863 51.2729 108.091 51.9662 108.091 52.8412C108.091 53.7202 107.853 54.4135 107.376 54.9213C106.904 55.4252 106.242 55.6772 105.39 55.6772C104.636 55.6772 104.021 55.4682 103.544 55.0502C103.068 54.6323 102.796 54.0541 102.73 53.3159H103.755C103.822 53.8041 103.996 54.1733 104.277 54.4233C104.558 54.6694 104.929 54.7924 105.39 54.7924C105.894 54.7924 106.289 54.6205 106.574 54.2768C106.863 53.933 107.007 53.4584 107.007 52.853C107.007 52.2827 106.851 51.8256 106.539 51.4819C106.23 51.1342 105.818 50.9604 105.302 50.9604C104.83 50.9604 104.458 51.0639 104.189 51.2709L103.902 51.5053L103.035 51.2827Z" fill="#AEAEAE"/>
<path d="M118.618 9.60001H130.681" stroke="#AEAEAE"/>
<path d="M101.388 10.04H95.7983V9.26071L98.7514 5.97946C99.1889 5.48337 99.4897 5.08102 99.6537 4.77243C99.8217 4.45993 99.9057 4.13766 99.9057 3.80563C99.9057 3.36032 99.7709 2.99509 99.5014 2.70993C99.2319 2.42477 98.8725 2.2822 98.4233 2.2822C97.8842 2.2822 97.4643 2.43649 97.1635 2.74509C96.8666 3.04977 96.7182 3.47556 96.7182 4.02243H95.6342C95.6342 3.23727 95.8862 2.60251 96.3901 2.11813C96.8979 1.63376 97.5756 1.39157 98.4233 1.39157C99.2162 1.39157 99.8432 1.60056 100.304 2.01852C100.765 2.43259 100.996 2.98532 100.996 3.67673C100.996 4.51657 100.46 5.51657 99.3901 6.67673L97.1049 9.15524H101.388V10.04ZM107.886 6.40134C107.886 7.67087 107.669 8.61423 107.236 9.23141C106.802 9.8486 106.124 10.1572 105.203 10.1572C104.292 10.1572 103.619 9.85641 103.181 9.25485C102.744 8.64938 102.517 7.74704 102.501 6.54782V5.10056C102.501 3.84665 102.718 2.91501 103.152 2.30563C103.585 1.69626 104.265 1.39157 105.191 1.39157C106.109 1.39157 106.785 1.68649 107.218 2.27634C107.652 2.86227 107.874 3.76852 107.886 4.99509V6.40134ZM106.802 4.91891C106.802 4.00095 106.673 3.33298 106.415 2.91501C106.158 2.49313 105.749 2.2822 105.191 2.2822C104.636 2.2822 104.232 2.49118 103.978 2.90915C103.724 3.32712 103.593 3.9697 103.585 4.83688V6.57126C103.585 7.49313 103.718 8.17477 103.984 8.61618C104.253 9.05368 104.66 9.27243 105.203 9.27243C105.738 9.27243 106.134 9.0654 106.392 8.65134C106.654 8.23727 106.79 7.58493 106.802 6.69431V4.91891Z" fill="#AEAEAE"/>
<path d="M130.681 27.72L264.266 91.08L397.851 207.24L531.437 112.2L665.022 69.96L798.607 6.59998L932.192 196.68L1065.78 122.76L1199.36 165L1332.95 112.2V217.8H1199.36H1065.78H932.192H798.607H665.022H531.437H397.851H264.266H130.681V27.72Z" fill="#32BCB2"/>
</g>
<defs>
<clipPath id="clip0">
<rect width="1343" height="264" fill="white"/>
</clipPath>
</defs>
</svg>
